<svg width="120" height="24" viewBox="0 0 120 24" fill="none" xmlns="http://www.w3.org/2000/svg">
<path d="M36.0547 18.7501V6.15039H38.3582V16.5902H43.9427V18.7501H36.0547Z" fill="#3A5088"/>
<path d="M48.9163 19.0021C48.0553 19.0021 47.2816 18.8221 46.5952 18.4621C45.9088 18.1022 45.3678 17.5802 44.9722 16.8962C44.5767 16.2122 44.3789 15.3902 44.3789 14.4302V14.1422C44.3789 13.1822 44.5767 12.3602 44.9722 11.6763C45.3678 10.9923 45.9088 10.4703 46.5952 10.1103C47.2816 9.75032 48.0553 9.57031 48.9163 9.57031C49.7772 9.57031 50.5509 9.75032 51.2373 10.1103C51.9237 10.4703 52.4647 10.9923 52.8603 11.6763C53.2558 12.3602 53.4536 13.1822 53.4536 14.1422V14.4302C53.4536 15.3902 53.2558 16.2122 52.8603 16.8962C52.4647 17.5802 51.9237 18.1022 51.2373 18.4621C50.5509 18.8221 49.7772 19.0021 48.9163 19.0021ZM48.9163 16.9861C49.591 16.9861 50.1495 16.7641 50.5916 16.3202C51.0337 15.8642 51.2548 15.2162 51.2548 14.3762V14.1962C51.2548 13.3562 51.0337 12.7142 50.5916 12.2702C50.1611 11.8143 49.6027 11.5862 48.9163 11.5862C48.2415 11.5862 47.683 11.8143 47.2409 12.2702C46.7988 12.7142 46.5778 13.3562 46.5778 14.1962V14.3762C46.5778 15.2162 46.7988 15.8642 47.2409 16.3202C47.683 16.7641 48.2415 16.9861 48.9163 16.9861Z" fill="#3A5088"/>
<path d="M54.2791 14.3222V14.0342C54.2791 13.0982 54.4594 12.3002 54.82 11.6402C55.1807 10.9683 55.6577 10.4583 56.251 10.1103C56.856 9.75032 57.5134 9.57031 58.2231 9.57031C59.0142 9.57031 59.6133 9.71427 60.0205 10.0023C60.4278 10.2903 60.7244 10.5903 60.9105 10.9022H61.2247V9.82226H63.3887V20.334C63.3887 20.9461 63.2142 21.432 62.8651 21.792C62.5161 22.1641 62.0508 22.35 61.469 22.35H55.6752V20.3701H60.7011C61.0269 20.3701 61.1898 20.1901 61.1898 19.8301V17.5081H60.8757C60.7594 17.7001 60.5964 17.8981 60.387 18.1022C60.1776 18.2941 59.8984 18.4561 59.5494 18.5881C59.2003 18.7201 58.7583 18.7861 58.2231 18.7861C57.5134 18.7861 56.856 18.6121 56.251 18.2641C55.6577 17.9041 55.1807 17.3941 54.82 16.7341C54.4594 16.0622 54.2791 15.2582 54.2791 14.3222ZM58.8513 16.8061C59.5261 16.8061 60.0904 16.5841 60.5441 16.1402C60.9979 15.6961 61.2247 15.0722 61.2247 14.2682V14.0882C61.2247 13.2722 60.9979 12.6482 60.5441 12.2162C60.102 11.7723 59.5377 11.5502 58.8513 11.5502C58.1765 11.5502 57.6123 11.7723 57.1585 12.2162C56.7048 12.6482 56.4779 13.2722 56.4779 14.0882V14.2682C56.4779 15.0722 56.7048 15.6961 57.1585 16.1402C57.6123 16.5841 58.1765 16.8061 58.8513 16.8061Z" fill="#3A5088"/>
<path d="M69.1597 19.0021C68.2988 19.0021 67.5251 18.8221 66.8386 18.4621C66.1522 18.1022 65.6113 17.5802 65.2157 16.8962C64.8202 16.2122 64.6223 15.3902 64.6223 14.4302V14.1422C64.6223 13.1822 64.8202 12.3602 65.2157 11.6763C65.6113 10.9923 66.1522 10.4703 66.8386 10.1103C67.5251 9.75032 68.2988 9.57031 69.1597 9.57031C70.0207 9.57031 70.7943 9.75032 71.4808 10.1103C72.1672 10.4703 72.7081 10.9923 73.1038 11.6763C73.4993 12.3602 73.6971 13.1822 73.6971 14.1422V14.4302C73.6971 15.3902 73.4993 16.2122 73.1038 16.8962C72.7081 17.5802 72.1672 18.1022 71.4808 18.4621C70.7943 18.8221 70.0207 19.0021 69.1597 19.0021ZM69.1597 16.9861C69.8345 16.9861 70.393 16.7641 70.835 16.3202C71.2771 15.8642 71.4982 15.2162 71.4982 14.3762V14.1962C71.4982 13.3562 71.2771 12.7142 70.835 12.2702C70.4046 11.8143 69.8461 11.5862 69.1597 11.5862C68.4849 11.5862 67.9265 11.8143 67.4844 12.2702C67.0423 12.7142 66.8212 13.3562 66.8212 14.1962V14.3762C66.8212 15.2162 67.0423 15.8642 67.4844 16.3202C67.9265 16.7641 68.4849 16.9861 69.1597 16.9861Z" fill="#3A5088"/>
<path d="M74.9415 18.7492V9.82136H77.1406V18.7492H74.9415ZM76.0411 8.77744C75.6451 8.77744 75.3084 8.64539 75.0286 8.38138C74.7612 8.11744 74.6274 7.76941 74.6274 7.33743C74.6274 6.90544 74.7612 6.55745 75.0286 6.29346C75.3084 6.02946 75.6451 5.89746 76.0411 5.89746C76.4484 5.89746 76.7859 6.02946 77.0529 6.29346C77.3206 6.55745 77.4549 6.90544 77.4549 7.33743C77.4549 7.76941 77.3206 8.11744 77.0529 8.38138C76.7859 8.64539 76.4484 8.77744 76.0411 8.77744Z" fill="#3A5088"/>
<path d="M78.792 22.35V9.82226H80.9557V10.9022H81.27C81.4672 10.5543 81.7755 10.2483 82.1947 9.98425C82.6132 9.70832 83.2125 9.57031 83.9925 9.57031C84.69 9.57031 85.3357 9.75032 85.929 10.1103C86.523 10.4583 87 10.9743 87.36 11.6582C87.7207 12.3422 87.9015 13.1702 87.9015 14.1422V14.4302C87.9015 15.4022 87.7207 16.2301 87.36 16.9141C87 17.5981 86.523 18.1201 85.929 18.4801C85.3357 18.8281 84.69 19.0021 83.9925 19.0021C83.469 19.0021 83.0265 18.9361 82.6657 18.8041C82.317 18.6841 82.032 18.5281 81.8107 18.3361C81.6015 18.1321 81.4327 17.9281 81.3045 17.7241H80.9902V22.35H78.792ZM83.3287 17.0221C84.0157 17.0221 84.5797 16.8002 85.0215 16.3562C85.4752 15.9001 85.7025 15.2402 85.7025 14.3762V14.1962C85.7025 13.3322 85.4752 12.6783 85.0215 12.2342C84.5677 11.7782 84.0037 11.5502 83.3287 11.5502C82.6545 11.5502 82.0897 11.7782 81.636 12.2342C81.1822 12.6783 80.9557 13.3322 80.9557 14.1962V14.3762C80.9557 15.2402 81.1822 15.9001 81.636 16.3562C82.0897 16.8002 82.6545 17.0221 83.3287 17.0221Z" fill="#3A5088"/>
<path d="M92.73 19.0021C91.6012 19.0021 90.6765 18.7501 89.955 18.2461C89.2342 17.7421 88.7977 17.0221 88.6462 16.0862L90.6705 15.5462C90.7522 15.9662 90.8857 16.2961 91.0725 16.5362C91.2697 16.7761 91.5082 16.9502 91.788 17.0582C92.0782 17.1542 92.3925 17.2021 92.73 17.2021C93.2422 17.2021 93.6202 17.1122 93.864 16.9321C94.1085 16.7401 94.2307 16.5061 94.2307 16.2301C94.2307 15.9541 94.1145 15.7442 93.882 15.6002C93.6487 15.4442 93.2767 15.3182 92.7652 15.2222L92.2762 15.1321C91.671 15.0122 91.119 14.8502 90.6187 14.6462C90.1177 14.4302 89.7165 14.1362 89.4142 13.7642C89.112 13.3922 88.9605 12.9123 88.9605 12.3243C88.9605 11.4362 89.2747 10.7583 89.9032 10.2903C90.531 9.81027 91.3575 9.57031 92.3812 9.57031C93.3465 9.57031 94.1497 9.79225 94.7895 10.2363C95.4292 10.6803 95.8477 11.2622 96.0457 11.9823L94.0042 12.6302C93.9112 12.1743 93.7192 11.8502 93.4282 11.6582C93.1485 11.4662 92.7997 11.3702 92.3812 11.3702C91.962 11.3702 91.6425 11.4483 91.4212 11.6042C91.2 11.7483 91.0897 11.9523 91.0897 12.2162C91.0897 12.5042 91.206 12.7203 91.4385 12.8642C91.671 12.9962 91.9852 13.0982 92.3812 13.1702L92.8695 13.2602C93.5212 13.3802 94.1085 13.5422 94.632 13.7462C95.1675 13.9382 95.586 14.2202 95.889 14.5922C96.2025 14.9522 96.36 15.4442 96.36 16.0682C96.36 17.0042 96.0285 17.7302 95.3655 18.2461C94.7137 18.7501 93.8355 19.0021 92.73 19.0021Z" fill="#3A5088"/>
<path d="M100.8 18.8941C100.125 18.8941 99.5316 18.7381 99.0194 18.4261C98.5191 18.1022 98.1299 17.6581 97.8501 17.0941C97.5711 16.5301 97.4316 15.8822 97.4316 15.1502V9.82227H99.6306V14.9702C99.6306 15.6422 99.7874 16.1461 100.102 16.4822C100.427 16.8181 100.887 16.9861 101.48 16.9861C102.155 16.9861 102.679 16.7582 103.051 16.3022C103.423 15.8342 103.609 15.1861 103.609 14.3582V9.82227H105.808V18.7501H103.644V17.5802H103.33C103.191 17.8802 102.928 18.1741 102.545 18.4621C102.161 18.7501 101.579 18.8941 100.8 18.8941Z" fill="#3A5088"/>
<path d="M107.47 18.7495V9.82169H109.633V10.7937H109.948C110.099 10.4937 110.35 10.2357 110.698 10.0197C111.047 9.79168 111.507 9.67773 112.077 9.67773C112.693 9.67773 113.188 9.80375 113.56 10.0557C113.932 10.2957 114.217 10.6137 114.415 11.0097H114.73C114.928 10.6257 115.207 10.3077 115.567 10.0557C115.928 9.80375 116.44 9.67773 117.103 9.67773C117.638 9.67773 118.121 9.79771 118.552 10.0377C118.993 10.2657 119.343 10.6197 119.599 11.0997C119.866 11.5677 120 12.1616 120 12.8817V18.7495H117.801V13.0437C117.801 12.5517 117.679 12.1857 117.435 11.9457C117.19 11.6937 116.847 11.5677 116.405 11.5677C115.905 11.5677 115.515 11.7356 115.236 12.0717C114.968 12.3956 114.835 12.8636 114.835 13.4756V18.7495H112.636V13.0437C112.636 12.5517 112.513 12.1857 112.269 11.9457C112.024 11.6937 111.682 11.5677 111.239 11.5677C110.739 11.5677 110.349 11.7356 110.07 12.0717C109.802 12.3956 109.669 12.8636 109.669 13.4756V18.7495H107.47Z" fill="#3A5088"/>
<path d="M29.0857 12C29.0857 8.81745 27.8599 5.76516 25.678 3.51472C23.4961 1.26429 20.5368 4.17348e-07 17.4512 0C14.3655 -4.17347e-07 11.4062 1.26429 9.22434 3.51472C7.04243 5.76516 5.81665 8.81745 5.81665 12H9.45249C10.6573 12 11.5969 10.9587 12.0382 9.80234C12.3279 9.04317 12.7676 8.3455 13.3377 7.75736C14.4287 6.63215 15.9083 6.00001 17.4512 6.00001C18.994 6.00001 20.4737 6.63215 21.5646 7.75736C22.6556 8.88258 23.2684 10.4087 23.2684 12H29.0857Z" fill="url(#paint0_linear_5542_5340)"/>
<path d="M22.3833 16.5922C22.968 15.1363 23.269 13.5758 23.269 12H29.0856C29.0856 18.6274 23.8766 24 17.4511 24C16.4448 24 15.4683 23.8682 14.5371 23.6205C15.064 23.4805 15.5819 23.3022 16.0868 23.0865C17.4983 22.4835 18.7809 21.5996 19.8613 20.4853C20.9417 19.371 21.7987 18.0481 22.3833 16.5922Z" fill="#FBCF8E"/>
<path d="M0 12C-2.18575e-07 13.5759 0.300935 15.1363 0.885623 16.5923C1.47032 18.0482 2.3273 19.371 3.40767 20.4854C4.48803 21.5996 5.77061 22.4835 7.18217 23.0866C8.59372 23.6897 10.1066 24 11.6345 24C13.1624 24 14.6753 23.6897 16.0868 23.0866C17.4984 22.4835 18.781 21.5996 19.8614 20.4854C20.9417 19.371 21.7987 18.0482 22.3834 16.5923C22.9681 15.1363 23.2691 13.5759 23.2691 12H19.6332C18.4284 12 17.4888 13.0414 17.0475 14.1976C17.035 14.2306 17.0221 14.2634 17.009 14.2962C16.7166 15.0241 16.2881 15.6856 15.7479 16.2427C15.2078 16.7998 14.5664 17.2418 13.8607 17.5433C13.1549 17.8449 12.3985 18.0001 11.6345 18.0001C10.8706 18.0001 10.1141 17.8449 9.40838 17.5433C8.70255 17.2418 8.0613 16.7998 7.52108 16.2427C6.9809 15.6856 6.55241 15.0241 6.26007 14.2962C5.96772 13.5682 5.81726 12.788 5.81726 12H0Z" fill="url(#paint1_linear_5542_5340)"/>
<path d="M0.0012207 12C0.0012207 5.37257 5.21015 0 11.6357 0C12.6417 0 13.6179 0.131696 14.5491 0.379295C12.5511 0.91015 10.7081 1.98446 9.22436 3.51473C7.04247 5.76515 5.81671 8.81745 5.81671 12H0.0012207Z" fill="#73E5E2"/>
<defs>
<linearGradient id="paint0_linear_5542_5340" x1="29.0857" y1="6.00001" x2="5.81665" y2="6.00001" gradientUnits="userSpaceOnUse">
<stop stop-color="#73E5E2"/>
<stop offset="1" stop-color="#394F87"/>
</linearGradient>
<linearGradient id="paint1_linear_5542_5340" x1="7.6284e-07" y1="18.0001" x2="23.2691" y2="18.0001" gradientUnits="userSpaceOnUse">
<stop stop-color="#FBDC8E"/>
<stop offset="1" stop-color="#FB958E"/>
</linearGradient>
</defs>
</svg>
